<?xml version="1.0" encoding="UTF-8"?>
<!DOCTYPE svg PUBLIC "-//W3C//DTD SVG 1.1//EN" "http://www.w3.org/Graphics/SVG/1.1/DTD/svg11.dtd">
<!-- Creator: CorelDRAW 2018 (64 Bit) -->
<svg xmlns="http://www.w3.org/2000/svg" xml:space="preserve" width="30.5721mm" height="33.795mm" version="1.1" style="shape-rendering:geometricPrecision; text-rendering:geometricPrecision; image-rendering:optimizeQuality; fill-rule:evenodd; clip-rule:evenodd"
viewBox="0 0 9343.36 10328.33"
 xmlns:xlink="http://www.w3.org/1999/xlink">
 <defs>
  <style type="text/css">
   <![CDATA[
    .fil0 {fill:#004EC2}
   ]]>
  </style>
 </defs>
 <g id="Camada_x0020_1">
  <metadata id="CorelCorpID_0Corel-Layer"/>
  <path class="fil0" d="M2152.06 1662.95c-136.24,-114.39 -510.66,-178.66 -741.3,-149.17 -640.45,81.94 -1100.07,659.03 -1028.52,1311.8 16.63,151.62 80.5,264.18 95.35,374.01 -182.48,155.25 -316.41,246.54 -415.3,521.11 -177.41,492.62 36.58,1038.98 485.59,1278.43 193.06,102.96 325.24,114.51 478.38,115.55l0.03 0 7254.71 0c211.91,-4.13 350.82,-9.99 580.55,-157.03 483.64,-309.22 619.7,-937.33 332.57,-1416.11 -135.3,-225.61 -289.17,-331.14 -558.3,-451.89 174.39,-461.79 83.95,-768.05 -190,-1061.16 -202.62,-216.77 -506.71,-382.42 -809.34,-453.6 -88.02,-20.72 -99.29,-1.77 -106.87,-74.11 -27.38,-261.61 -40.1,-361.61 -167.02,-556.25 -305.74,-469 -927.36,-698.92 -1518.52,-605.12 -188.44,29.89 -125.15,-88.75 -461.7,-237.98 -180.34,-79.98 -394.7,-119.5 -616.64,-93.46 -502.4,58.98 -599.77,326.34 -749.04,323.59 -123.26,-2.23 -226.31,-16.72 -360.17,-9.84 -563.19,28.91 -1135.21,286.64 -1396.58,748.49 -45.69,80.71 -76.31,160.42 -96.88,262.46 -26.74,132.76 2.26,226.77 -11,330.28zm-1125.8 3451.73c99.29,0.7 207.39,-3.06 346.6,10.85 -45.14,144.86 -127.5,253.66 -146.27,446.57 -19.35,198.99 30.29,381.1 232.79,382.88 207.39,1.83 257.36,-157.73 243.73,-370.04 -12.9,-200.67 -107.88,-311.36 -145.11,-459.89l2796.49 -2.54c-9.38,61.86 -246.33,688.04 175.12,676.58 343.61,-9.32 213.96,-456.44 150.55,-671.65l1011.41 -4.86c-44.1,140.83 -112.16,252.53 -113.45,431.47 -1.31,180.13 49.2,319.58 230.99,324.6 454.39,12.53 146.42,-720.74 142.57,-755.88l1861.76 -0.12c-39.58,148.84 -123.35,248.41 -137.86,446.41 -15.01,204.67 34.69,369 237.86,369.49 308.28,0.76 260.84,-382.45 185.97,-600.84 -26.68,-77.84 -68.18,-148.9 -84.78,-212.65 103.51,-7.58 189.73,-8.86 266.38,-10.36l-7254.71 0 -0.03 0zm6123.71 3485.32c-84.72,144.04 -178.6,322.7 -218.67,508.33 -48.59,225 -7.67,468.69 233.34,463.19 469.18,-10.67 104.52,-905.05 -14.67,-971.53zm-296.27 -3243.42c-151.68,161.09 -454.67,972.93 0.89,973.39 456.01,0.49 146.05,-827.55 -0.89,-973.39zm-4615.46 405.19c-135.82,114.88 -476.33,973.91 0.15,971.4 418.79,-2.17 195.44,-701.88 -0.15,-971.4zm3025 568.94c-150,166.29 -456.41,969.23 -0.03,970.03 456.5,0.76 153.6,-813.92 0.03,-970.03zm-997.93 3026.16c-148.13,152.32 -454.33,969.2 0,971.43 463.56,2.29 142.36,-825.53 0,-971.43zm-77.96 -2836.25c-144.43,173.16 -453.51,965.81 -0.12,970.49 440.88,4.55 179.21,-752.83 22.65,-946.53 -13.14,-16.23 -12.01,-14.52 -22.52,-23.96zm-2245.37 1548.71c-135.36,170.41 -463.9,972.44 -0.4,972.93 470.59,0.52 134.99,-855.7 0.4,-972.93zm4225.65 1257.09c-144.47,162.59 -455.28,967.43 -0.03,970.58 245.29,1.71 274.99,-259.81 224.87,-476.33 -22.71,-98.1 -138.78,-414.63 -224.84,-494.24zm-5040.73 -2091.22c-78.21,160.91 -166.99,296.36 -213.17,501.4 -50.92,226.25 -17.94,480.25 233.19,473.25 222.58,-6.23 266.01,-251.16 213.96,-467.9 -24.08,-100.21 -54.4,-181.14 -92.14,-266.5 -20.02,-45.2 -42.63,-85.7 -62.65,-125.79 -23.41,-46.88 -34.32,-80.44 -79.19,-114.45zm1703.88 -185.33c-2.9,2.48 -7.03,2.9 -8.13,7.98 -1.13,5.07 -6.45,6.36 -7.95,8.16 -80.77,97.61 -182.42,363.59 -208.34,476.27 -50.85,221.08 -22.95,481.07 224.38,478.5 457.94,-4.77 140.19,-799.37 0.03,-970.91zm2354.5 1311.31c-138.57,156.23 -459.31,968.68 -0.03,971.22 409.47,2.26 213.81,-593.72 74.66,-858.88l-74.63 -112.34zm-2371.44 1621.24c-0.28,-284.16 -146.08,-454.61 -228.78,-657.81 -30.53,19.71 -10.48,0.03 -36.55,32.58 -18.8,23.44 -7.67,10.15 -23.5,39.52 -104.34,193.82 -218.24,442.75 -186.12,671.78 22.28,158.89 95.35,247.43 273.8,228.72 159.04,-16.69 201.31,-144.5 201.16,-314.79zm609.46 -4671.6c-68.98,54.25 -194.43,372.21 -222.06,486.42 -56.26,232.82 -20.9,485.41 222.15,485.5 456.71,0.15 142.72,-796.87 -0.09,-971.92zm202.69 3127.23c-2.87,2.32 -7,2.69 -8.07,7.61l-61.46 94.71c-57.76,111.34 -126.71,264.36 -155.5,390.3 -50.3,220.04 -22.25,479.82 225.06,477.83 455.03,-3.64 143.43,-797.48 -0.03,-970.46zm4314.21 -1328.95c-69.1,166.23 -163.78,289.02 -211.73,505.92 -50.18,227.01 -13.94,473.65 232.45,468.05 231.05,-5.2 262.37,-249.23 215.15,-466.98 -24.3,-112.04 -122.8,-354.7 -185.05,-454.7 -1.44,-2.29 -19.68,-27.05 -20.9,-28.33 -24.69,-25.98 6.72,-2.11 -29.92,-23.96zm-1538.69 -235.48l-131.72 232.73c-116.29,258.28 -224.41,739.5 131.72,736.97 455.03,-3.24 145.2,-805.3 0,-969.69z"/>
 </g>
</svg>
