<?xml version="1.0" encoding="UTF-8"?>
<!DOCTYPE svg PUBLIC "-//W3C//DTD SVG 1.1//EN" "http://www.w3.org/Graphics/SVG/1.1/DTD/svg11.dtd">
<!-- Creator: CorelDRAW 2018 (64 Bit) -->
<svg xmlns="http://www.w3.org/2000/svg" xml:space="preserve" width="42.3333mm" height="41.4311mm" version="1.1" style="shape-rendering:geometricPrecision; text-rendering:geometricPrecision; image-rendering:optimizeQuality; fill-rule:evenodd; clip-rule:evenodd"
viewBox="0 0 43449.26 42523.28"
 xmlns:xlink="http://www.w3.org/1999/xlink">
 <defs>
  <style type="text/css">
   <![CDATA[
    .fil0 {fill:#757575}
   ]]>
  </style>
 </defs>
 <g id="Camada_x0020_1">
  <metadata id="CorelCorpID_0Corel-Layer"/>
  <path class="fil0" d="M6685.51 14442.44c0,-1781.87 749.45,-3943.18 1916.83,-5154.28l707.27 -707.06c998.34,-989.72 3180.18,-1895.59 4704.12,-1895.59 932.86,0 1534.82,-26.38 2458.03,241.91 262.13,76.36 490.91,142.25 718.86,224.05l971.96 442.26c106.64,64.56 193.47,106.43 300.42,170.99 220.67,133.22 368.67,239.55 565.11,377.6 187.11,131.37 357.89,252.69 524.47,418.45 107.67,106.95 150.77,120.8 257.1,214.3 612.33,539.25 1450.97,1786.18 1741.12,2501.55 869.94,2145.3 874.46,4167.23 -18.89,6312.64 -365.28,877.13 -895.5,1608.72 -1550.52,2263.64 -2589.51,2589.51 -6254.54,2999.54 -9467.26,1260.47 -2248.96,-1217.47 -3828.64,-3964.53 -3828.64,-6670.94zm-6685.51 -85.7c0,3780.19 1509.67,7488.02 4146.29,10124.54 153.34,153.34 275.37,275.17 428.51,428.61 350.3,350.91 1081.89,955.23 1476.22,1223.53l1087.12 713.01c1178.37,711.88 2447.87,1209.67 3789.74,1567.25 3741.7,997.21 8082.39,246.53 11246.15,-1825.38 301.34,-197.47 553,-383.04 839.36,-574.86l2536.24 2520.85c36.13,68.46 82.72,758.48 119.37,909.05 302.47,1244.16 843.46,1590.35 1662.09,2409.18l9171.15 9171.15c326.18,326.07 684.89,740.01 1072.75,984.28 1092.46,687.97 2439.76,679.14 3553.06,20.12 554.03,-327.82 1637.97,-1436.7 1928.12,-2014.54 402.44,-801.59 506.2,-1569.61 263.16,-2464.4 -217.38,-800.87 -683.66,-1277.41 -1245.8,-1839.65 -942.61,-942.51 -9870.11,-9965.87 -10421.26,-10363.79 -508.05,-366.72 -1217.57,-666.21 -1911.19,-660.16 -417.93,3.8 -306.47,-29.25 -931.42,-654.2 -311.5,-311.4 -1938.08,-1895.59 -2067.81,-2089.16 135.07,-255.26 293.74,-492.14 442.26,-757.76 1634.79,-2922.56 2110.3,-6768.96 1314.36,-10041.41 -120.7,-496.45 -237.19,-903.4 -390.63,-1366.39 -249.61,-753.45 -682.74,-1736.19 -1090.61,-2423.55 -627.41,-1057.67 -1379.74,-2144.17 -2257.38,-3013.91l-907.3 -849.72c-1247.54,-969.09 -1507.62,-1245.9 -3181.62,-2089.77 -189.98,-95.76 -390.94,-184.33 -589.44,-267.47 -1509.26,-632.24 -3395.31,-1132.18 -5082.03,-1132.18 -1583.37,0 -2628.2,6.16 -4181.7,446.78 -2126.11,602.88 -4096.11,1560.69 -5750.81,3034.64 -1150.45,1024.72 -1615.49,1550.32 -2520.44,2793.65 -133.84,184.03 -215.13,323.51 -336.24,520.88 -1383.33,2257.48 -2210.27,4855.1 -2210.27,7560.79z"/>
 </g>
</svg>
