<?xml version="1.0" encoding="UTF-8"?>
<!DOCTYPE svg PUBLIC "-//W3C//DTD SVG 1.1//EN" "http://www.w3.org/Graphics/SVG/1.1/DTD/svg11.dtd">
<!-- Creator: CorelDRAW 2018 (64 Bit) -->
<svg xmlns="http://www.w3.org/2000/svg" xml:space="preserve" width="30.8474mm" height="31.8918mm" version="1.1" style="shape-rendering:geometricPrecision; text-rendering:geometricPrecision; image-rendering:optimizeQuality; fill-rule:evenodd; clip-rule:evenodd"
viewBox="0 0 1083.78 1120.48"
 xmlns:xlink="http://www.w3.org/1999/xlink">
 <defs>
  <style type="text/css">
   <![CDATA[
    .fil0 {fill:#FFB303}
   ]]>
  </style>
 </defs>
 <g id="Camada_x0020_1">
  <metadata id="CorelCorpID_0Corel-Layer"/>
  <path class="fil0" d="M1009.19 285.83l-66.75 0c-23.52,0 -19.11,19.42 -9.94,22.45l88.31 -0.07c5.57,-1.93 9,-8.43 5.64,-16.25 -2.7,-6.27 -9.06,-6.12 -17.26,-6.12zm-66.75 251.37l68.51 0c13.88,0 17.64,-4.02 15.93,-18.2 -7.41,-4.66 -5.27,-5.16 -15.93,-5.16l-68.51 0c-23.6,-0.01 -23.06,23.36 0,23.36zm70.27 90.63l-72.02 -0.01c-18.91,-0.01 -18.13,17.48 -8.88,21.83 4.65,2.19 80.08,2.01 85.78,1.06 13.04,-2.17 16.45,-22.89 -4.87,-22.89zm0 -227.98l-72.02 -0.01c-20.03,0 -17.51,17.97 -9.25,21.87 5.01,2.36 80.29,2.18 86.34,1.12 13.48,-2.36 15.79,-22.98 -5.06,-22.98zm-78.28 56.26c-15.88,4.79 -12.8,23.66 2.62,25.27l138.16 -1.09c11.99,-4.62 10.99,-22.96 -4.86,-24.75l-135.91 0.57zm6.26 -88.61l124.72 0.02c24.32,0 24.31,-26.04 0,-26.04l-122.97 -0c-26.02,-0.01 -23.42,26.03 -1.76,26.03zm3.51 -113.96l121.21 0c24.22,0 25.37,-26.06 -1.76,-26.06l-119.45 0c-10.96,0 -19.62,1.26 -19.87,12.87 -0.26,11.98 8.76,13.2 19.87,13.2zm-19.31 335.26c12.75,9.74 13.38,6.65 38.63,6.65l91.35 0.01c11.53,0.05 35.41,1.16 27.24,-18.62 -4.53,-10.97 -25.13,-7.47 -37.79,-7.47l-91.35 -0.01c-18.89,-0.06 -30.59,-2.8 -28.09,19.43zm0.1 113.94c13.45,10.16 19.23,6.72 38.53,6.72 14.31,0 106.02,1.66 112.92,-1.42 4.9,-2.19 8.69,-9.09 5.67,-16.96 -4.24,-11.05 -23.82,-7.78 -37.78,-7.78l-91.35 -0.01c-18.73,-0.06 -30.99,-2.83 -27.99,19.45zm-726.98 67.81l-114.49 65.33c-19.11,11.56 -3.88,34.71 12.48,28.51l113.87 -65.47c6.3,-3.64 11.84,-8.33 7.58,-19.7 -2.77,-7.38 -10.26,-12.57 -19.43,-8.67zm-54.86 -214.43l-124.72 -0.01c-23.86,0 -24.59,29.86 -1.89,30.97l126.72 0.03c24.79,-0.56 25.06,-30.99 -0.11,-30.99zm148.14 -481.3c-24.37,6.78 -7.46,27.85 -2.1,36.99l43.67 75.8c6.66,11.17 13.52,34.31 30.98,29.45 21.09,-5.87 6.69,-26.42 0.06,-37.64l-43.79 -75.63c-6.1,-10.89 -13.54,-33.22 -28.82,-28.96zm275.61 -73.74c-13.7,5.15 -9.9,14.79 -9.9,38.97l-0.02 94.86c-0.07,9.04 -1.1,32.91 22.94,24.15 11.56,-4.22 8.02,-25.13 8.01,-39.96l0.04 -94.88c0.06,-7.7 1.28,-14.46 -3.63,-19.65 -4.01,-4.24 -11.15,-5.85 -17.44,-3.49zm-214.27 925.83c-8.59,3.65 -3.77,1.42 -13.21,17.38l-54.75 94.53c-17.25,28.11 8.87,32.67 16.6,29.09 6.69,-3.1 38.16,-61.56 45.38,-74.24 7.44,-13.07 14.22,-25.11 21.83,-37.93 4.11,-6.92 9.42,-12.57 4.99,-21.62 -3.04,-6.21 -12.03,-10.95 -20.84,-7.21zm-266.8 -648.14c-7.65,3.21 -12.68,8.77 -10.59,18.86 1.72,8.3 8.85,10.03 15.92,14 13.06,7.32 25.33,14.53 37.8,21.9 12.41,7.34 24.75,14.44 37.85,21.87 8.33,4.73 31.02,21.71 42.1,17.69 5.95,-2.15 11.75,-9.95 9.35,-19.79 -2.28,-9.37 -44.69,-30.06 -54.25,-35.47l-57 -32.64c-7.3,-4.24 -12.27,-10.17 -21.18,-6.42zm431.71 653.44l-1.52 -41.1c-60.62,-9.04 -143.41,-53.53 -181.93,-100.38 -32.79,-39.88 -55.64,-70.32 -73.17,-128.93 -39.66,-132.55 12.8,-273.26 111.06,-348.99 61.42,-47.33 131.76,-72.6 212.1,-70.61 10.75,0.27 26.6,2.88 35.71,2.22l8.6 -39.05c-61.39,-5.45 -106.47,-4.9 -162.93,12.97 -189.03,59.86 -302.55,260.88 -242.18,458.28 15.13,49.46 36.78,85.95 62.84,119.83 42.03,54.64 128.14,123.59 231.42,135.75zm236.43 -503.02c-35.25,10.3 -28.55,44.98 -28.55,83.41l0.05 224.89c-0.27,19.62 -8.01,29.73 -20.06,36.96 -18.68,11.19 -14.18,5.98 -35.24,22.77 -43.35,34.59 -61.33,107.01 -35.22,165.18 20.25,45.12 71.79,90.09 142.32,83.67 135.15,-12.29 176.66,-185.01 68.56,-259.44 -36,-24.79 -41.37,-12.8 -41.36,-70.26l0 -224.86c0,-18.73 1.63,-35.47 -8.15,-48.85 -7.17,-9.8 -24.36,-18.74 -42.33,-13.49zm-102.24 289.87c-39.37,31.06 -58.01,41.83 -83.66,95.49 -63.14,132.06 31.72,305.8 196.96,305.91 153.77,0.1 260.7,-156.05 197.48,-304.72 -4.47,-10.52 -9.64,-19.26 -15.4,-28.52 -4.64,-7.45 -14.49,-20.85 -19.47,-26.24 -6.1,-6.58 -16.54,-17.07 -23.18,-22.43 -8.45,-6.81 -17.8,-12.77 -26.22,-19.47 0.39,-113.89 0.01,-227.86 0.01,-341.76 0,-44.31 5.87,-128.42 -9.26,-163.75 -14.61,-34.11 -52.7,-68.28 -103.93,-68.11 -52.92,0.18 -86.82,32.24 -103.47,67 -15.8,33 -9.88,120.32 -9.88,163.1 0,114.48 -0.31,229.01 0.02,343.48zm38.94 23.51c-10.41,8.13 -19.18,9.09 -45.76,31.16 -42.09,34.94 -67.25,106.91 -52.55,169.84 17.24,73.82 83.72,137.6 172.66,137.62 134.18,0.02 219.39,-142.64 154.78,-263.16 -13.34,-24.88 -33.8,-45.71 -55.47,-60.44 -8.27,-5.63 -17.7,-9.63 -25.19,-14.79 -1.67,-156.04 -0.14,-317.38 -0.06,-474.37 0.04,-80.9 -78.14,-108.36 -128.53,-59.75 -13.34,12.87 -19.78,34.31 -19.74,59.75l0.02 316.2c0,51.76 1.74,106.57 -0.16,157.94z"/>
 </g>
</svg>
